#!OML:ASF E:\I on waltz\Acrobat_Osman\acrobat\cartwheel_test 2\Patient 1\Session 1\acrobat.ASF
:FULLY-SPECIFIED
:DEGREES
17
root 9.70341 16.5571 -3.68167 -170.01 2.00995 176.467
lowerback 6.08012 0.214586 -4.8531
upperback 8.5554 1.07695 1.2932
thorax 5.44953 0.598336 4.09391
lowerneck -7.14841 -3.5314 -4.89265
upperneck 13.3789 -4.02555 1.2822
head 5.33594 -2.00544 0.938187
rclavicle 1.98785e-015 1.19271e-014
rhumerus -43.0882 -1.82367 -2.07709
rradius 25.2794
rwrist 1.13152
rhand -28.5522 19.2121
rfingers 7.12502
rthumb -1.91919 -10.759
lclavicle 1.98785e-015 1.19271e-014
lhumerus -43.0636 -8.11777 4.67019
lradius 27.5025
lwrist 29.9103
lhand -20.9902 60.24
lfingers 7.12502
lthumb 5.38382 -90.1516
rfemur -24.9987 -3.12049 18.6852
rtibia 21.36
rfoot 0.652911 -5.57735
rtoes -0.63789
lfemur -31.821 7.83226 -22.7116
ltibia 36.6925
lfoot 2.15957 1.17222
ltoes -27.3476
18
root 9.67645 16.5021 -3.52321 -168.658 1.63788 176.858
lowerback 7.59808 -0.0685121 -4.61551
upperback 9.53883 0.910146 1.55386
thorax 5.68597 0.600579 4.24169
lowerneck -8.11188 -3.55539 -5.06968
upperneck 11.5247 -4.09779 1.18308
head 4.92694 -2.08759 0.922009
rclavicle -1.98785e-015 -5.56597e-015
rhumerus -47.6137 -1.08499 0.369831
rradius 25.0117
rwrist 0.744818
rhand -28.9267 19.0652
rfingers 7.12502
rthumb -2.28091 -10.9024
lclavicle -1.98785e-015 -5.56597e-015
lhumerus -46.2587 -17.3772 8.56497
lradius 26.5764
lwrist 40.2682
lhand -21.8934 62.6315
lfingers 7.12502
lthumb 4.51172 -92.5635
rfemur -29.7652 -4.86639 19.6025
rtibia 25.5836
rfoot 1.6639 -3.90316
rtoes -2.37936
lfemur -35.6162 7.71202 -22.4368
ltibia 38.9624
lfoot 0.934433 0.375503
ltoes -28.8976
19
root 9.6533 16.4271 -3.36134 -167.096 1.41602 177.264
lowerback 8.92495 -0.343303 -4.34199
upperback 10.3796 0.759368 1.712
thorax 5.88434 0.614418 4.26675
lowerneck -9.44155 -3.57772 -5.05368
upperneck 9.99206 -4.11017 0.970869
head 4.67038 -2.11804 0.839167
rclavicle -1.19271e-014 -2.18663e-014
rhumerus -52.1753 -0.441761 2.1556
rradius 24.4883
rwrist 0.772086
rhand -29.2844 18.4407
rfingers 7.12502
rthumb -2.62637 -11.5229
lclavicle -1.19271e-014 -2.18663e-014
lhumerus -51.8487 -9.70918 5.1934
lradius 25.7408
lwrist 30.8296
lhand -21.5634 61.2789
lfingers 7.12502
lthumb 4.83031 -91.2039
rfemur -34.8296 -6.01074 20.5962
rtibia 29.9086
rfoot 2.38387 -2.77944
rtoes -3.65243
lfemur -39.7798 7.54157 -22.1666
ltibia 41.372
lfoot 0.0848011 0.658814
ltoes -29.264
20
root 9.62728 16.3241 -3.19582 -165.167 1.47363 177.457
lowerback 9.91611 -0.622154 -4.27927
upperback 10.9856 0.552662 1.64015
thorax 6.02852 0.575125 4.17135
lowerneck -10.3993 -3.49745 -4.60654
upperneck 8.09663 -4.02181 0.621914
head 4.22425 -2.07325 0.665139
rclavicle 1.98785e-015 8.34896e-015
rhumerus -56.9363 0.0127265 3.23702
rradius 24.1023
rwrist 0.907375
rhand -30.0839 17.7068
rfingers 7.12502
rthumb -3.39844 -12.2458
lclavicle 1.98785e-015 8.34896e-015
lhumerus -57.3663 -11.456 7.01226
lradius 25.0733
lwrist 31.5379
lhand -22.6358 61.5792
lfingers 7.12502
lthumb 3.79485 -91.5251
rfemur -40.279 -6.52171 21.3006
rtibia 34.0587
rfoot 3.09056 -2.09453
rtoes -4.13224
lfemur -44.2813 7.13834 -22.1252
ltibia 43.745
lfoot 0.0483618 2.26877
ltoes -28.0368
21
root 9.60052 16.1826 -3.03202 -162.995 1.73866 177.687
lowerback 10.5703 -0.815428 -4.23485
upperback 11.4234 0.413852 1.58826
thorax 6.16952 0.547536 4.10518
lowerneck -10.5416 -3.41809 -4.46886
upperneck 5.1914 -3.92559 0.524409
head 3.69086 -1.99692 0.7125
rclavicle -1.03368e-014 -1.90833e-014
rhumerus -62.1645 1.20047 2.63778
rradius 24.2278
rwrist -0.810137
rhand -31.7476 16.7001
rfingers 7.12502
rthumb -5.00501 -13.2208
lclavicle -1.03368e-014 -1.90833e-014
lhumerus -62.7288 -11.8254 9.09615
lradius 24.0332
lwrist 31.0937
lhand -22.0869 62.9207
lfingers 7.12502
lthumb 4.32489 -92.8565
rfemur -45.9487 -6.24598 21.8326
rtibia 38.1606
rfoot 3.54049 -1.92455
rtoes -4.20345
lfemur -49.1444 6.62807 -21.98
ltibia 46.2241
lfoot 0.834823 4.36384
ltoes -26.0797
22
root 9.57818 16.0358 -2.87011 -160.906 2.11094 178.042
lowerback 11.1853 -0.815141 -4.09384
upperback 11.7656 0.511769 1.72028
thorax 6.20156 0.632518 4.16526
lowerneck -10.5183 -3.56183 -5.25362
upperneck 2.66385 -3.99908 0.974943
head 2.84477 -1.97052 1.01041
rclavicle 4.37326e-015 6.75868e-015
rhumerus -66.856 0.0814109 4.76605
rradius 23.3963
rwrist 0.524396
rhand -32.8541 15.9214
rfingers 7.12502
rthumb -6.07332 -13.9716
lclavicle 4.37326e-015 6.75868e-015
lhumerus -67.0458 -10.7214 10.7799
lradius 22.1178
lwrist 28.5251
lhand -22.6508 63.2688
lfingers 7.12502
lthumb 3.78029 -93.215
rfemur -51.2505 -5.44751 22.3053
rtibia 42.0805
rfoot 3.25004 -2.13782
rtoes -4.78022
lfemur -53.9075 6.15688 -21.5378
ltibia 48.7864
lfoot 1.60734 5.83439
ltoes -24.7
